<?xml version="1.0" encoding="UTF-8"?>
<svg id="Layer_1" xmlns="http://www.w3.org/2000/svg" version="1.1" viewBox="0 0 512 512">
  <!-- Generator: Adobe Illustrator 29.0.0, SVG Export Plug-In . SVG Version: 2.1.0 Build 186)  -->
  <defs>
    <style>
      .st0 {
        fill: #00fe00;
      }
    </style>
  </defs>
  <path class="st0" d="M256,48.3c28,0,55.2,5.6,80.8,16.7,24.8,10.7,47,26.1,66.1,45.7,19.1,19.6,34.2,42.5,44.7,67.9,10.9,26.4,16.4,54.4,16.4,83.3,0,45.8-13.9,89.5-40.2,126.3-12.6,17.7-27.8,33.2-45,46.2-15.8,11.9-33,21.3-51.2,28.2v-6.5c.1-11.9.2-29.8.2-50.4s-2-22.5-4.9-30.5c37.2-8.3,92-33.7,92-125.4s-7.1-46.5-21.2-65.1c3.1-12.9,5.5-35.6-5.1-63l-2.7-7.1-7.2-2.4c-1.5-.5-4.8-1.3-10-1.3-11.5,0-30.9,3.9-59.5,22.6-17-4.2-34.8-6.6-53.1-6.6h-.2c-18.3,0-36.2,2.4-53.1,6.6-28.6-18.7-48-22.7-59.5-22.7s-8.5.9-10,1.4l-7.2,2.4-2.7,7.1c-10.6,27.5-8.2,50.2-5.1,63-14.1,18.7-21.2,40.6-21.2,65.1,0,49.6,16,79.9,36.6,98.5-8.1-6.6-18.6-12.1-31.2-13h-1.3c-13.1,0-22.3,5.4-25.2,14.7-4.7,14.8,9.8,25,14.6,28.4l.5.6,1.5.6c1.6,1,10.1,7,16.9,24.5,2,6.2,6.3,14.5,13.6,22.2-13.1-11.2-24.8-24-34.9-38.1-26.3-36.7-40.2-80.4-40.2-126.2s5.5-56.9,16.4-83.3c10.5-25.5,25.5-48.3,44.7-67.9,19.1-19.6,41.4-35,66.1-45.7,25.6-11.1,52.8-16.8,80.8-16.8M136.7,351c16.8,14.1,36.3,20.9,52.3,24.5-.8,2.2-1.5,4.5-2.1,6.9-3.4,1-7.5,1.8-11.7,1.8-10.9,0-19-5.4-25.6-16.9-2.4-4.6-6.8-10.7-12.9-16.3M140.4,439.6c9.8,5.3,22.1,8.8,37.2,8.8s4.4-.1,6.7-.2c0,2.8,0,5.5.1,7.9,0,2.4,0,4.6.1,6.5-15.6-5.8-30.3-13.5-44.1-23M256,32.3c-123.7,0-224,102.9-224,229.7s64.2,187.5,153.2,217.9c1.4.3,2.6.4,3.8.4,8.3,0,11.5-6.1,11.5-11.4s-.2-19.9-.3-39.1c-8.4,1.9-15.9,2.7-22.6,2.7-43.1,0-52.9-33.5-52.9-33.5-10.2-26.5-24.9-33.8-24.9-33.8-19.5-13.7,0-14.2,1.4-14.2h0c22.5,2,34.3,23.9,34.3,23.9,11.2,19.6,26.2,25.2,39.6,25.2s20-3.4,25.6-6c2-14.8,7.8-24.9,14.2-30.7-49.7-5.8-102-25.5-102-113.5s8.7-45.6,23-61.6c-2.3-5.8-10-29.2,2.2-60.8,0,0,1.6-.5,5-.5,8.1,0,26.4,3.1,56.6,24.1,17.9-5.1,37-7.6,56.1-7.7,19,.1,38.2,2.6,56.1,7.7,30.2-21,48.5-24.1,56.6-24.1s5,.5,5,.5c12.2,31.6,4.5,55,2.2,60.8,14.3,16.1,23,36.6,23,61.6,0,88.2-52.4,107.6-102.3,113.3,8,7.1,15.2,21.1,15.2,42.5,0,30.7-.3,55.5-.3,63s3.1,11.5,11.4,11.5,2.6-.1,4-.4c89.1-30.3,153.2-116.4,153.2-217.8S379.7,32.3,256,32.3h0Z"/>
</svg>